<svg width="138" height="138" viewBox="0 0 138 138" fill="none" xmlns="http://www.w3.org/2000/svg">
<path d="M69 0L78.1965 10.9358L90.3222 3.3771L95.6892 16.6195L109.557 13.1778L110.569 27.4306L124.822 28.4428L121.38 42.3108L134.623 47.6778L127.064 59.8035L138 69L127.064 78.1965L134.623 90.3222L121.38 95.6892L124.822 109.557L110.569 110.569L109.557 124.822L95.6892 121.38L90.3222 134.623L78.1965 127.064L69 138L59.8035 127.064L47.6778 134.623L42.3108 121.38L28.4428 124.822L27.4306 110.569L13.1778 109.557L16.6195 95.6892L3.3771 90.3222L10.9358 78.1965L0 69L10.9358 59.8035L3.3771 47.6778L16.6195 42.3108L13.1778 28.4428L27.4306 27.4306L28.4428 13.1778L42.3108 16.6195L47.6778 3.3771L59.8035 10.9358L69 0Z" fill="black"/>
</svg>
